<svg width="14" height="13" viewBox="0 0 14 13" fill="none" xmlns="http://www.w3.org/2000/svg">
<path d="M3.69287 12.7139C3.15544 12.7139 2.66878 12.5954 2.23291 12.3584C1.80127 12.1257 1.45638 11.8019 1.19824 11.3872C0.944336 10.9725 0.817383 10.4922 0.817383 9.94629C0.817383 9.40039 0.944336 8.92008 1.19824 8.50537C1.45638 8.09066 1.80127 7.76693 2.23291 7.53418C2.66878 7.2972 3.15544 7.17871 3.69287 7.17871H10.3008C10.8382 7.17871 11.3228 7.2972 11.7544 7.53418C12.1903 7.76693 12.5352 8.09066 12.7891 8.50537C13.0472 8.92008 13.1763 9.40039 13.1763 9.94629C13.1763 10.4922 13.0472 10.9725 12.7891 11.3872C12.5352 11.8019 12.1903 12.1257 11.7544 12.3584C11.3228 12.5954 10.8382 12.7139 10.3008 12.7139H3.69287ZM10.4658 11.4634C10.7409 11.4634 10.9927 11.3936 11.2212 11.2539C11.4497 11.1185 11.6317 10.9344 11.7671 10.7017C11.9067 10.4689 11.9787 10.2108 11.9829 9.92725C11.9829 9.65218 11.9152 9.40251 11.7798 9.17822C11.6444 8.94971 11.4603 8.76774 11.2275 8.63232C10.999 8.49691 10.7451 8.4292 10.4658 8.4292C10.1865 8.4292 9.93262 8.49691 9.7041 8.63232C9.47559 8.76774 9.29362 8.94971 9.1582 9.17822C9.02279 9.40674 8.95508 9.66064 8.95508 9.93994C8.95508 10.2192 9.02279 10.4731 9.1582 10.7017C9.29362 10.9302 9.47559 11.1121 9.7041 11.2476C9.93262 11.3872 10.1865 11.4591 10.4658 11.4634ZM3.95312 6.20752C3.36068 6.20752 2.82747 6.08057 2.35352 5.82666C1.87956 5.57275 1.50505 5.21729 1.22998 4.76025C0.954915 4.29899 0.817383 3.76579 0.817383 3.16064C0.817383 2.55127 0.954915 2.01807 1.22998 1.56104C1.50505 1.09977 1.87956 0.742188 2.35352 0.488281C2.82747 0.234375 3.36068 0.107422 3.95312 0.107422H10.0405C10.633 0.107422 11.1662 0.234375 11.6401 0.488281C12.1141 0.742188 12.4886 1.09977 12.7637 1.56104C13.0387 2.01807 13.1763 2.55127 13.1763 3.16064C13.1763 3.76579 13.0387 4.29899 12.7637 4.76025C12.4886 5.21729 12.1141 5.57275 11.6401 5.82666C11.1662 6.08057 10.633 6.20752 10.0405 6.20752H3.95312ZM3.95312 4.93164H10.0405C10.3791 4.93164 10.688 4.85758 10.9673 4.70947C11.2508 4.55713 11.4772 4.34766 11.6465 4.08105C11.8158 3.81445 11.9004 3.50765 11.9004 3.16064C11.9004 2.80941 11.8158 2.5026 11.6465 2.24023C11.4772 1.97363 11.2508 1.76628 10.9673 1.61816C10.688 1.46582 10.3791 1.38965 10.0405 1.38965H3.95312C3.61458 1.38965 3.30355 1.46582 3.02002 1.61816C2.74072 1.76628 2.51644 1.97363 2.34717 2.24023C2.1779 2.5026 2.09326 2.80941 2.09326 3.16064C2.09326 3.50765 2.1779 3.81445 2.34717 4.08105C2.51644 4.34766 2.74072 4.55713 3.02002 4.70947C3.30355 4.85758 3.61458 4.93164 3.95312 4.93164ZM3.95312 4.51904C3.69922 4.51904 3.46859 4.45768 3.26123 4.33496C3.05811 4.21224 2.89518 4.0472 2.77246 3.83984C2.65397 3.63249 2.59473 3.40397 2.59473 3.1543C2.59473 2.90462 2.65397 2.67611 2.77246 2.46875C2.89518 2.26139 3.05811 2.09635 3.26123 1.97363C3.46859 1.85091 3.69922 1.78955 3.95312 1.78955C4.20703 1.78955 4.43766 1.85091 4.64502 1.97363C4.85238 2.09212 5.01742 2.25505 5.14014 2.4624C5.26286 2.66553 5.3221 2.89404 5.31787 3.14795C5.31787 3.40186 5.25651 3.63249 5.13379 3.83984C5.01107 4.0472 4.84603 4.21436 4.63867 4.34131C4.43555 4.46403 4.20703 4.52327 3.95312 4.51904Z" fill="white" fill-opacity="0.85"/>
</svg>
